<?xml version="1.0" encoding="utf-8"?>
<!-- Generator: Adobe Illustrator 25.4.1, SVG Export Plug-In . SVG Version: 6.00 Build 0)  -->
<svg version="1.1"
	 id="svg4" sodipodi:docname="arrow.svg" xmlns:sodipodi="http://sodipodi.sourceforge.net/DTD/sodipodi-0.dtd" xmlns:svg="http://www.w3.org/2000/svg"
	 xmlns="http://www.w3.org/2000/svg" xmlns:xlink="http://www.w3.org/1999/xlink" x="0px" y="0px" viewBox="0 0 7.5 13.5"
	 style="enable-background:new 0 0 7.5 13.5;" xml:space="preserve">
<style type="text/css">
	.st0{fill:#999999;}
	.st1{fill:#1D1D1D;}
</style>
<g>
	<path class="st0" d="M6.6,13.2C6.6,13.2,6.6,13.2,6.6,13.2L0.2,6.9c0,0,0-0.1,0-0.2l6.3-6.4c0,0,0.1,0,0.1,0c0,0,0,0,0,0
		c0,0,0.1,0,0.1,0l0.6,0.6c0,0,0,0.1,0,0.2L1.6,6.8l5.7,5.7c0,0,0,0.1,0,0.1s0,0.1,0,0.1L6.6,13.2C6.7,13.2,6.7,13.2,6.6,13.2z"/>
	<path class="st1" d="M6.6,0.4l0.6,0.6L1.4,6.8l5.8,5.8l-0.6,0.6L0.3,6.8L6.6,0.4 M6.6,0.1C6.6,0.1,6.6,0.1,6.6,0.1
		c-0.1,0-0.1,0-0.2,0.1L0.1,6.6C0,6.7,0,6.9,0.1,7l6.3,6.3c0,0,0.1,0.1,0.2,0.1c0.1,0,0.1,0,0.2-0.1l0.6-0.6c0.1-0.1,0.1-0.3,0-0.4
		L1.8,6.8l5.6-5.7c0.1-0.1,0.1-0.3,0-0.4L6.8,0.2C6.8,0.2,6.7,0.1,6.6,0.1L6.6,0.1z"/>
</g>
</svg>
